{"asset":{"version":"2.0","generator":"UFO@home scripts/build-silly-le-long-craft.ts"},"scene":0,"scenes":[{"nodes":[0,1,2,3,4,5]}],"nodes":[{"name":"hull","mesh":0},{"name":"front-white-left","mesh":1},{"name":"front-white-right","mesh":2},{"name":"front-red","mesh":3},{"name":"rear-left","mesh":4},{"name":"rear-right","mesh":5}],"meshes":[{"name":"hull","primitives":[{"attributes":{"POSITION":0,"NORMAL":1},"indices":2,"material":0}]},{"name":"front-white-left","primitives":[{"attributes":{"POSITION":3,"NORMAL":4},"indices":5,"material":1}]},{"name":"front-white-right","primitives":[{"attributes":{"POSITION":6,"NORMAL":7},"indices":8,"material":2}]},{"name":"front-red","primitives":[{"attributes":{"POSITION":9,"NORMAL":10},"indices":11,"material":3}]},{"name":"rear-left","primitives":[{"attributes":{"POSITION":12,"NORMAL":13},"indices":14,"material":4}]},{"name":"rear-right","primitives":[{"attributes":{"POSITION":15,"NORMAL":16},"indices":17,"material":5}]}],"materials":[{"name":"hull","pbrMetallicRoughness":{"baseColorFactor":[0.32314320911295075,0.33716361504833037,0.35153259950043936,1],"metallicFactor":0,"roughnessFactor":0.9}},{"name":"front-white-left","pbrMetallicRoughness":{"baseColorFactor":[0.007499032043226175,0.008023192985384994,0.010329823029626936,1],"metallicFactor":0,"roughnessFactor":0.6},"emissiveFactor":[1,1,1]},{"name":"front-white-right","pbrMetallicRoughness":{"baseColorFactor":[0.007499032043226175,0.008023192985384994,0.010329823029626936,1],"metallicFactor":0,"roughnessFactor":0.6},"emissiveFactor":[1,1,1]},{"name":"front-red","pbrMetallicRoughness":{"baseColorFactor":[0.007499032043226175,0.008023192985384994,0.010329823029626936,1],"metallicFactor":0,"roughnessFactor":0.6},"emissiveFactor":[1,0.08,0.05]},{"name":"rear-left","pbrMetallicRoughness":{"baseColorFactor":[0.003346535763899161,0.003676507324047436,0.004391442037410293,1],"metallicFactor":0,"roughnessFactor":0.6},"emissiveFactor":[0.93,0.96,1]},{"name":"rear-right","pbrMetallicRoughness":{"baseColorFactor":[0.003346535763899161,0.003676507324047436,0.004391442037410293,1],"metallicFactor":0,"roughnessFactor":0.6},"emissiveFactor":[0.93,0.96,1]}],"accessors":[{"bufferView":0,"componentType":5126,"count":24,"type":"VEC3","min":[-17,-1.2000000476837158,-10],"max":[17,1.2000000476837158,10]},{"bufferView":1,"componentType":5126,"count":24,"type":"VEC3"},{"bufferView":2,"componentType":5125,"count":24,"type":"SCALAR"},{"bufferView":3,"componentType":5126,"count":24,"type":"VEC3","min":[15.676176071166992,-0.5,8.364842414855957],"max":[16.41525650024414,0.5,9.204499244689941]},{"bufferView":4,"componentType":5126,"count":24,"type":"VEC3"},{"bufferView":5,"componentType":5125,"count":36,"type":"SCALAR"},{"bufferView":6,"componentType":5126,"count":24,"type":"VEC3","min":[-16.41525650024414,-0.5,8.364842414855957],"max":[-15.676176071166992,0.5,9.204499244689941]},{"bufferView":7,"componentType":5126,"count":24,"type":"VEC3"},{"bufferView":8,"componentType":5125,"count":36,"type":"SCALAR"},{"bufferView":9,"componentType":5126,"count":24,"type":"VEC3","min":[12.766176223754883,-0.5,4.941312313079834],"max":[13.505256652832031,0.5,5.780969619750977]},{"bufferView":10,"componentType":5126,"count":24,"type":"VEC3"},{"bufferView":11,"componentType":5125,"count":36,"type":"SCALAR"},{"bufferView":12,"componentType":5126,"count":24,"type":"VEC3","min":[13.770000457763672,-1.2000000476837158,10],"max":[17,1.2000000476837158,10.119999885559082]},{"bufferView":13,"componentType":5126,"count":24,"type":"VEC3"},{"bufferView":14,"componentType":5125,"count":36,"type":"SCALAR"},{"bufferView":15,"componentType":5126,"count":24,"type":"VEC3","min":[-17,-1.2000000476837158,10],"max":[-13.770000457763672,1.2000000476837158,10.119999885559082]},{"bufferView":16,"componentType":5126,"count":24,"type":"VEC3"},{"bufferView":17,"componentType":5125,"count":36,"type":"SCALAR"}],"bufferViews":[{"buffer":0,"byteOffset":0,"byteLength":288,"target":34962},{"buffer":0,"byteOffset":288,"byteLength":288,"target":34962},{"buffer":0,"byteOffset":576,"byteLength":96,"target":34963},{"buffer":0,"byteOffset":672,"byteLength":288,"target":34962},{"buffer":0,"byteOffset":960,"byteLength":288,"target":34962},{"buffer":0,"byteOffset":1248,"byteLength":144,"target":34963},{"buffer":0,"byteOffset":1392,"byteLength":288,"target":34962},{"buffer":0,"byteOffset":1680,"byteLength":288,"target":34962},{"buffer":0,"byteOffset":1968,"byteLength":144,"target":34963},{"buffer":0,"byteOffset":2112,"byteLength":288,"target":34962},{"buffer":0,"byteOffset":2400,"byteLength":288,"target":34962},{"buffer":0,"byteOffset":2688,"byteLength":144,"target":34963},{"buffer":0,"byteOffset":2832,"byteLength":288,"target":34962},{"buffer":0,"byteOffset":3120,"byteLength":288,"target":34962},{"buffer":0,"byteOffset":3408,"byteLength":144,"target":34963},{"buffer":0,"byteOffset":3552,"byteLength":288,"target":34962},{"buffer":0,"byteOffset":3840,"byteLength":288,"target":34962},{"buffer":0,"byteOffset":4128,"byteLength":144,"target":34963}],"buffers":[{"byteLength":4272,"uri":"data:application/octet-stream;base64,"}]}
