{"asset":{"version":"2.0","generator":"UFO@home scripts/build-mcminnville-object.ts"},"scene":0,"scenes":[{"nodes":[0,1,2]}],"nodes":[{"name":"hull","mesh":0},{"name":"underside","mesh":1},{"name":"antenna","mesh":2}],"meshes":[{"name":"hull","primitives":[{"attributes":{"POSITION":0,"NORMAL":1},"indices":2,"material":0}]},{"name":"underside","primitives":[{"attributes":{"POSITION":3,"NORMAL":4},"indices":5,"material":1}]},{"name":"antenna","primitives":[{"attributes":{"POSITION":6,"NORMAL":7},"indices":8,"material":0}]}],"materials":[{"name":"hull","pbrMetallicRoughness":{"baseColorFactor":[0.45641102318040466,0.4232676699860717,0.3662525955988395,1],"metallicFactor":0.7,"roughnessFactor":0.45}},{"name":"underside","pbrMetallicRoughness":{"baseColorFactor":[0.012983032342173012,0.012983032342173012,0.014443843596092545,1],"metallicFactor":0.1,"roughnessFactor":0.8}}],"accessors":[{"bufferView":0,"componentType":5126,"count":343,"type":"VEC3","min":[-0.05999999865889549,0,-0.05999999865889549],"max":[0.05999999865889549,0.03400000184774399,0.05999999865889549]},{"bufferView":1,"componentType":5126,"count":343,"type":"VEC3"},{"bufferView":2,"componentType":5125,"count":1728,"type":"SCALAR"},{"bufferView":3,"componentType":5126,"count":50,"type":"VEC3","min":[-0.05820000171661377,-3.563722380727508e-18,-0.05820000171661377],"max":[0.05820000171661377,3.563722380727508e-18,0.05820000171661377]},{"bufferView":4,"componentType":5126,"count":50,"type":"VEC3"},{"bufferView":5,"componentType":5125,"count":144,"type":"SCALAR"},{"bufferView":6,"componentType":5126,"count":64,"type":"VEC3","min":[-0.009953169152140617,0.032999999821186066,-0.003000000026077032],"max":[-0.004246830474585295,0.04100000113248825,0.003000000026077032]},{"bufferView":7,"componentType":5126,"count":64,"type":"VEC3"},{"bufferView":8,"componentType":5125,"count":120,"type":"SCALAR"}],"bufferViews":[{"buffer":0,"byteOffset":0,"byteLength":4116,"target":34962},{"buffer":0,"byteOffset":4116,"byteLength":4116,"target":34962},{"buffer":0,"byteOffset":8232,"byteLength":6912,"target":34963},{"buffer":0,"byteOffset":15144,"byteLength":600,"target":34962},{"buffer":0,"byteOffset":15744,"byteLength":600,"target":34962},{"buffer":0,"byteOffset":16344,"byteLength":576,"target":34963},{"buffer":0,"byteOffset":16920,"byteLength":768,"target":34962},{"buffer":0,"byteOffset":17688,"byteLength":768,"target":34962},{"buffer":0,"byteOffset":18456,"byteLength":480,"target":34963}],"buffers":[{"byteLength":18936,"uri":"data:application/octet-stream;base64,"}]}
