{"asset":{"version":"2.0","generator":"UFO@home scripts/build-socorro-craft.ts"},"scene":0,"scenes":[{"nodes":[0,1,2,3,4,5,6,7,8,9,10]}],"nodes":[{"name":"hull","mesh":0},{"name":"insignia","mesh":1},{"name":"leg-1","mesh":2},{"name":"pad-1","mesh":3},{"name":"leg-2","mesh":4},{"name":"pad-2","mesh":5},{"name":"leg-3","mesh":6},{"name":"pad-3","mesh":7},{"name":"leg-4","mesh":8},{"name":"pad-4","mesh":9},{"name":"exhaust","translation":[0,0.6,0]}],"meshes":[{"name":"hull","primitives":[{"attributes":{"POSITION":0,"NORMAL":1},"indices":2,"material":0}]},{"name":"insignia","primitives":[{"attributes":{"POSITION":3,"NORMAL":4},"indices":5,"material":1}]},{"name":"leg-1","primitives":[{"attributes":{"POSITION":6,"NORMAL":7},"indices":8,"material":2}]},{"name":"pad-1","primitives":[{"attributes":{"POSITION":9,"NORMAL":10},"indices":11,"material":2}]},{"name":"leg-2","primitives":[{"attributes":{"POSITION":12,"NORMAL":13},"indices":14,"material":2}]},{"name":"pad-2","primitives":[{"attributes":{"POSITION":15,"NORMAL":16},"indices":17,"material":2}]},{"name":"leg-3","primitives":[{"attributes":{"POSITION":18,"NORMAL":19},"indices":20,"material":2}]},{"name":"pad-3","primitives":[{"attributes":{"POSITION":21,"NORMAL":22},"indices":23,"material":2}]},{"name":"leg-4","primitives":[{"attributes":{"POSITION":24,"NORMAL":25},"indices":26,"material":2}]},{"name":"pad-4","primitives":[{"attributes":{"POSITION":27,"NORMAL":28},"indices":29,"material":2}]}],"materials":[{"name":"hull","pbrMetallicRoughness":{"baseColorFactor":[0.8069522576692516,0.7912979403326302,0.7379104087727308,1],"metallicFactor":0.15,"roughnessFactor":0.4}},{"name":"insignia","pbrMetallicRoughness":{"baseColorFactor":[0.45641102318040466,0.016807375752887384,0.013702083047289686,1],"metallicFactor":0,"roughnessFactor":0.6}},{"name":"legs","pbrMetallicRoughness":{"baseColorFactor":[0.25415209433082675,0.25415209433082675,0.238397573812271,1],"metallicFactor":0.2,"roughnessFactor":0.5}}],"accessors":[{"bufferView":0,"componentType":5126,"count":2145,"type":"VEC3","min":[-1.6799999475479126,0.5999999642372131,-1.6799999475479126],"max":[1.6799999475479126,2.3299999237060547,1.6799999475479126]},{"bufferView":1,"componentType":5126,"count":2145,"type":"VEC3"},{"bufferView":2,"componentType":5125,"count":11904,"type":"SCALAR"},{"bufferView":3,"componentType":5126,"count":577,"type":"VEC3","min":[-0.3700000047683716,1.1649999618530273,-1.687999963760376],"max":[0.3700000047683716,1.7649999856948853,-1.5837247371673584]},{"bufferView":4,"componentType":5126,"count":577,"type":"VEC3"},{"bufferView":5,"componentType":5125,"count":3312,"type":"SCALAR"},{"bufferView":6,"componentType":5126,"count":76,"type":"VEC3","min":[0.5891364812850952,0.028015045449137688,0.5891364812850952],"max":[0.9311431050300598,0.7565795183181763,0.9311431050300598]},{"bufferView":7,"componentType":5126,"count":76,"type":"VEC3"},{"bufferView":8,"componentType":5125,"count":144,"type":"SCALAR"},{"bufferView":9,"componentType":5126,"count":124,"type":"VEC3","min":[0.7038834691047668,-3.7252903539730653e-10,0.7038834691047668],"max":[1.0638835430145264,0.05000000074505806,1.0638835430145264]},{"bufferView":10,"componentType":5126,"count":124,"type":"VEC3"},{"bufferView":11,"componentType":5125,"count":240,"type":"SCALAR"},{"bufferView":12,"componentType":5126,"count":76,"type":"VEC3","min":[-0.9311431050300598,0.028015045449137688,0.5891364812850952],"max":[-0.5891364812850952,0.7565795183181763,0.9311431050300598]},{"bufferView":13,"componentType":5126,"count":76,"type":"VEC3"},{"bufferView":14,"componentType":5125,"count":144,"type":"SCALAR"},{"bufferView":15,"componentType":5126,"count":124,"type":"VEC3","min":[-1.0638835430145264,-3.7252903539730653e-10,0.7038834691047668],"max":[-0.7038834691047668,0.05000000074505806,1.0638835430145264]},{"bufferView":16,"componentType":5126,"count":124,"type":"VEC3"},{"bufferView":17,"componentType":5125,"count":240,"type":"SCALAR"},{"bufferView":18,"componentType":5126,"count":76,"type":"VEC3","min":[-0.9311431050300598,0.028015045449137688,-0.9311431050300598],"max":[-0.5891364812850952,0.7565795183181763,-0.5891364812850952]},{"bufferView":19,"componentType":5126,"count":76,"type":"VEC3"},{"bufferView":20,"componentType":5125,"count":144,"type":"SCALAR"},{"bufferView":21,"componentType":5126,"count":124,"type":"VEC3","min":[-1.0638835430145264,-3.7252903539730653e-10,-1.0638835430145264],"max":[-0.7038834691047668,0.05000000074505806,-0.7038834691047668]},{"bufferView":22,"componentType":5126,"count":124,"type":"VEC3"},{"bufferView":23,"componentType":5125,"count":240,"type":"SCALAR"},{"bufferView":24,"componentType":5126,"count":76,"type":"VEC3","min":[0.5891364812850952,0.028015045449137688,-0.9311431050300598],"max":[0.9311431050300598,0.7565795183181763,-0.5891364812850952]},{"bufferView":25,"componentType":5126,"count":76,"type":"VEC3"},{"bufferView":26,"componentType":5125,"count":144,"type":"SCALAR"},{"bufferView":27,"componentType":5126,"count":124,"type":"VEC3","min":[0.7038834691047668,-3.7252903539730653e-10,-1.0638835430145264],"max":[1.0638835430145264,0.05000000074505806,-0.7038834691047668]},{"bufferView":28,"componentType":5126,"count":124,"type":"VEC3"},{"bufferView":29,"componentType":5125,"count":240,"type":"SCALAR"}],"bufferViews":[{"buffer":0,"byteOffset":0,"byteLength":25740,"target":34962},{"buffer":0,"byteOffset":25740,"byteLength":25740,"target":34962},{"buffer":0,"byteOffset":51480,"byteLength":47616,"target":34963},{"buffer":0,"byteOffset":99096,"byteLength":6924,"target":34962},{"buffer":0,"byteOffset":106020,"byteLength":6924,"target":34962},{"buffer":0,"byteOffset":112944,"byteLength":13248,"target":34963},{"buffer":0,"byteOffset":126192,"byteLength":912,"target":34962},{"buffer":0,"byteOffset":127104,"byteLength":912,"target":34962},{"buffer":0,"byteOffset":128016,"byteLength":576,"target":34963},{"buffer":0,"byteOffset":128592,"byteLength":1488,"target":34962},{"buffer":0,"byteOffset":130080,"byteLength":1488,"target":34962},{"buffer":0,"byteOffset":131568,"byteLength":960,"target":34963},{"buffer":0,"byteOffset":132528,"byteLength":912,"target":34962},{"buffer":0,"byteOffset":133440,"byteLength":912,"target":34962},{"buffer":0,"byteOffset":134352,"byteLength":576,"target":34963},{"buffer":0,"byteOffset":134928,"byteLength":1488,"target":34962},{"buffer":0,"byteOffset":136416,"byteLength":1488,"target":34962},{"buffer":0,"byteOffset":137904,"byteLength":960,"target":34963},{"buffer":0,"byteOffset":138864,"byteLength":912,"target":34962},{"buffer":0,"byteOffset":139776,"byteLength":912,"target":34962},{"buffer":0,"byteOffset":140688,"byteLength":576,"target":34963},{"buffer":0,"byteOffset":141264,"byteLength":1488,"target":34962},{"buffer":0,"byteOffset":142752,"byteLength":1488,"target":34962},{"buffer":0,"byteOffset":144240,"byteLength":960,"target":34963},{"buffer":0,"byteOffset":145200,"byteLength":912,"target":34962},{"buffer":0,"byteOffset":146112,"byteLength":912,"target":34962},{"buffer":0,"byteOffset":147024,"byteLength":576,"target":34963},{"buffer":0,"byteOffset":147600,"byteLength":1488,"target":34962},{"buffer":0,"byteOffset":149088,"byteLength":1488,"target":34962},{"buffer":0,"byteOffset":150576,"byteLength":960,"target":34963}],"buffers":[{"byteLength":151536,"uri":"data:application/octet-stream;base64,"}]}
