{"asset":{"version":"2.0","generator":"UFO@home scripts/build-valensole-craft.ts"},"scene":0,"scenes":[{"nodes":[0,1,2,3,4,5,6,7,8,9,10,11,12,13,14]}],"nodes":[{"name":"hull","mesh":0},{"name":"cupola","mesh":1},{"name":"pivot","mesh":2},{"name":"leg-1","mesh":3},{"name":"pad-1","mesh":4},{"name":"leg-2","mesh":5},{"name":"pad-2","mesh":6},{"name":"leg-3","mesh":7},{"name":"pad-3","mesh":8},{"name":"leg-4","mesh":9},{"name":"pad-4","mesh":10},{"name":"leg-5","mesh":11},{"name":"pad-5","mesh":12},{"name":"leg-6","mesh":13},{"name":"pad-6","mesh":14}],"meshes":[{"name":"hull","primitives":[{"attributes":{"POSITION":0,"NORMAL":1},"indices":2,"material":0}]},{"name":"cupola","primitives":[{"attributes":{"POSITION":3,"NORMAL":4},"indices":5,"material":1}]},{"name":"pivot","primitives":[{"attributes":{"POSITION":6,"NORMAL":7},"indices":8,"material":2}]},{"name":"leg-1","primitives":[{"attributes":{"POSITION":9,"NORMAL":10},"indices":11,"material":2}]},{"name":"pad-1","primitives":[{"attributes":{"POSITION":12,"NORMAL":13},"indices":14,"material":2}]},{"name":"leg-2","primitives":[{"attributes":{"POSITION":15,"NORMAL":16},"indices":17,"material":2}]},{"name":"pad-2","primitives":[{"attributes":{"POSITION":18,"NORMAL":19},"indices":20,"material":2}]},{"name":"leg-3","primitives":[{"attributes":{"POSITION":21,"NORMAL":22},"indices":23,"material":2}]},{"name":"pad-3","primitives":[{"attributes":{"POSITION":24,"NORMAL":25},"indices":26,"material":2}]},{"name":"leg-4","primitives":[{"attributes":{"POSITION":27,"NORMAL":28},"indices":29,"material":2}]},{"name":"pad-4","primitives":[{"attributes":{"POSITION":30,"NORMAL":31},"indices":32,"material":2}]},{"name":"leg-5","primitives":[{"attributes":{"POSITION":33,"NORMAL":34},"indices":35,"material":2}]},{"name":"pad-5","primitives":[{"attributes":{"POSITION":36,"NORMAL":37},"indices":38,"material":2}]},{"name":"leg-6","primitives":[{"attributes":{"POSITION":39,"NORMAL":40},"indices":41,"material":2}]},{"name":"pad-6","primitives":[{"attributes":{"POSITION":42,"NORMAL":43},"indices":44,"material":2}]}],"materials":[{"name":"hull","pbrMetallicRoughness":{"baseColorFactor":[0.4793201831008268,0.45078578283822346,0.38132601143253014,1],"metallicFactor":0.05,"roughnessFactor":0.85}},{"name":"cupola","pbrMetallicRoughness":{"baseColorFactor":[0.6239603916750761,0.6724431569576875,0.7011018919329731,0.45],"metallicFactor":0,"roughnessFactor":0.08},"alphaMode":"BLEND","doubleSided":true},{"name":"legs","pbrMetallicRoughness":{"baseColorFactor":[0.26635560480286247,0.24228112246555486,0.19120168274079138,1],"metallicFactor":0.1,"roughnessFactor":0.7}}],"accessors":[{"bufferView":0,"componentType":5126,"count":2145,"type":"VEC3","min":[-1.7450000047683716,0.35500001907348633,-1.7450000047683716],"max":[1.7450000047683716,2.1449999809265137,1.7450000047683716]},{"bufferView":1,"componentType":5126,"count":2145,"type":"VEC3"},{"bufferView":2,"componentType":5125,"count":11904,"type":"SCALAR"},{"bufferView":3,"componentType":5126,"count":1225,"type":"VEC3","min":[-0.7360000014305115,2.0614962577819824,-0.7360000014305115],"max":[0.7360000014305115,2.380000114440918,0.7360000014305115]},{"bufferView":4,"componentType":5126,"count":1225,"type":"VEC3"},{"bufferView":5,"componentType":5125,"count":6768,"type":"SCALAR"},{"bufferView":6,"componentType":5126,"count":100,"type":"VEC3","min":[-0.09000000357627869,5.364418242947977e-9,-0.09000000357627869],"max":[0.09000000357627869,0.35499998927116394,0.09000000357627869]},{"bufferView":7,"componentType":5126,"count":100,"type":"VEC3"},{"bufferView":8,"componentType":5125,"count":192,"type":"SCALAR"},{"bufferView":9,"componentType":5126,"count":76,"type":"VEC3","min":[0.8213191032409668,-0.036929816007614136,-0.054999999701976776],"max":[1.628680944442749,0.5152879953384399,0.054999999701976776]},{"bufferView":10,"componentType":5126,"count":76,"type":"VEC3"},{"bufferView":11,"componentType":5125,"count":144,"type":"SCALAR"},{"bufferView":12,"componentType":5126,"count":18,"type":"VEC3","min":[1.5199999809265137,0.004999999888241291,-0.07999999821186066],"max":[1.6799999475479126,0.004999999888241291,0.07999999821186066]},{"bufferView":13,"componentType":5126,"count":18,"type":"VEC3"},{"bufferView":14,"componentType":5125,"count":48,"type":"SCALAR"},{"bufferView":15,"componentType":5126,"count":76,"type":"VEC3","min":[0.37657979130744934,-0.036929816007614136,0.6998867392539978],"max":[0.8484202027320862,0.5152879953384399,1.4218754768371582]},{"bufferView":16,"componentType":5126,"count":76,"type":"VEC3"},{"bufferView":17,"componentType":5125,"count":144,"type":"SCALAR"},{"bufferView":18,"componentType":5126,"count":18,"type":"VEC3","min":[0.7200000286102295,0.004999999888241291,1.305640697479248],"max":[0.8799999952316284,0.004999999888241291,1.465640664100647]},{"bufferView":19,"componentType":5126,"count":18,"type":"VEC3"},{"bufferView":20,"componentType":5125,"count":48,"type":"SCALAR"},{"bufferView":21,"componentType":5126,"count":76,"type":"VEC3","min":[-0.8484202027320862,-0.036929816007614136,0.6998867392539978],"max":[-0.37657979130744934,0.5152879953384399,1.4218754768371582]},{"bufferView":22,"componentType":5126,"count":76,"type":"VEC3"},{"bufferView":23,"componentType":5125,"count":144,"type":"SCALAR"},{"bufferView":24,"componentType":5126,"count":18,"type":"VEC3","min":[-0.8799999952316284,0.004999999888241291,1.305640697479248],"max":[-0.7200000286102295,0.004999999888241291,1.465640664100647]},{"bufferView":25,"componentType":5126,"count":18,"type":"VEC3"},{"bufferView":26,"componentType":5125,"count":48,"type":"SCALAR"},{"bufferView":27,"componentType":5126,"count":76,"type":"VEC3","min":[-1.628680944442749,-0.036929816007614136,-0.054999999701976776],"max":[-0.8213191032409668,0.5152879953384399,0.054999999701976776]},{"bufferView":28,"componentType":5126,"count":76,"type":"VEC3"},{"bufferView":29,"componentType":5125,"count":144,"type":"SCALAR"},{"bufferView":30,"componentType":5126,"count":18,"type":"VEC3","min":[-1.6799999475479126,0.004999999888241291,-0.07999999821186066],"max":[-1.5199999809265137,0.004999999888241291,0.07999999821186066]},{"bufferView":31,"componentType":5126,"count":18,"type":"VEC3"},{"bufferView":32,"componentType":5125,"count":48,"type":"SCALAR"},{"bufferView":33,"componentType":5126,"count":76,"type":"VEC3","min":[-0.8484202027320862,-0.036929816007614136,-1.4218754768371582],"max":[-0.37657979130744934,0.5152879953384399,-0.6998867392539978]},{"bufferView":34,"componentType":5126,"count":76,"type":"VEC3"},{"bufferView":35,"componentType":5125,"count":144,"type":"SCALAR"},{"bufferView":36,"componentType":5126,"count":18,"type":"VEC3","min":[-0.8799999952316284,0.004999999888241291,-1.465640664100647],"max":[-0.7200000286102295,0.004999999888241291,-1.305640697479248]},{"bufferView":37,"componentType":5126,"count":18,"type":"VEC3"},{"bufferView":38,"componentType":5125,"count":48,"type":"SCALAR"},{"bufferView":39,"componentType":5126,"count":76,"type":"VEC3","min":[0.37657979130744934,-0.036929816007614136,-1.4218754768371582],"max":[0.8484202027320862,0.5152879953384399,-0.6998867392539978]},{"bufferView":40,"componentType":5126,"count":76,"type":"VEC3"},{"bufferView":41,"componentType":5125,"count":144,"type":"SCALAR"},{"bufferView":42,"componentType":5126,"count":18,"type":"VEC3","min":[0.7200000286102295,0.004999999888241291,-1.465640664100647],"max":[0.8799999952316284,0.004999999888241291,-1.305640697479248]},{"bufferView":43,"componentType":5126,"count":18,"type":"VEC3"},{"bufferView":44,"componentType":5125,"count":48,"type":"SCALAR"}],"bufferViews":[{"buffer":0,"byteOffset":0,"byteLength":25740,"target":34962},{"buffer":0,"byteOffset":25740,"byteLength":25740,"target":34962},{"buffer":0,"byteOffset":51480,"byteLength":47616,"target":34963},{"buffer":0,"byteOffset":99096,"byteLength":14700,"target":34962},{"buffer":0,"byteOffset":113796,"byteLength":14700,"target":34962},{"buffer":0,"byteOffset":128496,"byteLength":27072,"target":34963},{"buffer":0,"byteOffset":155568,"byteLength":1200,"target":34962},{"buffer":0,"byteOffset":156768,"byteLength":1200,"target":34962},{"buffer":0,"byteOffset":157968,"byteLength":768,"target":34963},{"buffer":0,"byteOffset":158736,"byteLength":912,"target":34962},{"buffer":0,"byteOffset":159648,"byteLength":912,"target":34962},{"buffer":0,"byteOffset":160560,"byteLength":576,"target":34963},{"buffer":0,"byteOffset":161136,"byteLength":216,"target":34962},{"buffer":0,"byteOffset":161352,"byteLength":216,"target":34962},{"buffer":0,"byteOffset":161568,"byteLength":192,"target":34963},{"buffer":0,"byteOffset":161760,"byteLength":912,"target":34962},{"buffer":0,"byteOffset":162672,"byteLength":912,"target":34962},{"buffer":0,"byteOffset":163584,"byteLength":576,"target":34963},{"buffer":0,"byteOffset":164160,"byteLength":216,"target":34962},{"buffer":0,"byteOffset":164376,"byteLength":216,"target":34962},{"buffer":0,"byteOffset":164592,"byteLength":192,"target":34963},{"buffer":0,"byteOffset":164784,"byteLength":912,"target":34962},{"buffer":0,"byteOffset":165696,"byteLength":912,"target":34962},{"buffer":0,"byteOffset":166608,"byteLength":576,"target":34963},{"buffer":0,"byteOffset":167184,"byteLength":216,"target":34962},{"buffer":0,"byteOffset":167400,"byteLength":216,"target":34962},{"buffer":0,"byteOffset":167616,"byteLength":192,"target":34963},{"buffer":0,"byteOffset":167808,"byteLength":912,"target":34962},{"buffer":0,"byteOffset":168720,"byteLength":912,"target":34962},{"buffer":0,"byteOffset":169632,"byteLength":576,"target":34963},{"buffer":0,"byteOffset":170208,"byteLength":216,"target":34962},{"buffer":0,"byteOffset":170424,"byteLength":216,"target":34962},{"buffer":0,"byteOffset":170640,"byteLength":192,"target":34963},{"buffer":0,"byteOffset":170832,"byteLength":912,"target":34962},{"buffer":0,"byteOffset":171744,"byteLength":912,"target":34962},{"buffer":0,"byteOffset":172656,"byteLength":576,"target":34963},{"buffer":0,"byteOffset":173232,"byteLength":216,"target":34962},{"buffer":0,"byteOffset":173448,"byteLength":216,"target":34962},{"buffer":0,"byteOffset":173664,"byteLength":192,"target":34963},{"buffer":0,"byteOffset":173856,"byteLength":912,"target":34962},{"buffer":0,"byteOffset":174768,"byteLength":912,"target":34962},{"buffer":0,"byteOffset":175680,"byteLength":576,"target":34963},{"buffer":0,"byteOffset":176256,"byteLength":216,"target":34962},{"buffer":0,"byteOffset":176472,"byteLength":216,"target":34962},{"buffer":0,"byteOffset":176688,"byteLength":192,"target":34963}],"buffers":[{"byteLength":176880,"uri":"data:application/octet-stream;base64,"}]}
