{"asset":{"version":"2.0","generator":"UFO@home scripts/build-braine-le-comte-craft.ts"},"scene":0,"scenes":[{"nodes":[0]}],"nodes":[{"name":"hull","mesh":0}],"meshes":[{"name":"hull","primitives":[{"attributes":{"POSITION":0,"NORMAL":1},"indices":2,"material":0}]}],"materials":[{"name":"hull","pbrMetallicRoughness":{"baseColorFactor":[0.024157632448504756,0.019382360956935723,0.02217388479338738,1],"metallicFactor":0,"roughnessFactor":0.9}}],"accessors":[{"bufferView":0,"componentType":5126,"count":948,"type":"VEC3","min":[-5.25,-0.6499999761581421,-2.678767204284668],"max":[5.25,0.6499999761581421,2.678767204284668]},{"bufferView":1,"componentType":5126,"count":948,"type":"VEC3"},{"bufferView":2,"componentType":5125,"count":948,"type":"SCALAR"}],"bufferViews":[{"buffer":0,"byteOffset":0,"byteLength":11376,"target":34962},{"buffer":0,"byteOffset":11376,"byteLength":11376,"target":34962},{"buffer":0,"byteOffset":22752,"byteLength":3792,"target":34963}],"buffers":[{"byteLength":26544,"uri":"data:application/octet-stream;base64,"}]}
