{"asset":{"version":"2.0","generator":"UFO@home scripts/build-chiles-whitted-craft.ts"},"scene":0,"scenes":[{"nodes":[0,1,2]}],"nodes":[{"name":"hull","mesh":0},{"name":"windshield","mesh":1},{"name":"exhaust","translation":[0,0,15],"rotation":[-0.7071067811865476,0,0,0.7071067811865476]}],"meshes":[{"name":"hull","primitives":[{"attributes":{"POSITION":0,"NORMAL":1},"indices":2,"material":0}]},{"name":"windshield","primitives":[{"attributes":{"POSITION":3,"NORMAL":4},"indices":5,"material":1}]}],"materials":[{"name":"hull","pbrMetallicRoughness":{"baseColorFactor":[0.010329823029626936,0.016807375752887384,0.05126945837404324,1],"metallicFactor":0.1,"roughnessFactor":0.45},"emissiveFactor":[0.00406428581291036,0.01739729809444453,0.11635803772116277]},{"name":"windshield","pbrMetallicRoughness":{"baseColorFactor":[1,0.9215818562772946,0.6307571363461468,1],"metallicFactor":0,"roughnessFactor":0.3},"emissiveFactor":[0.9,0.8294236706495651,0.5676814227115322]}],"accessors":[{"bufferView":0,"componentType":5126,"count":2145,"type":"VEC3","min":[-1.5850000381469727,-1.5850000381469727,-15],"max":[1.5850000381469727,1.5850000381469727,15]},{"bufferView":1,"componentType":5126,"count":2145,"type":"VEC3"},{"bufferView":2,"componentType":5125,"count":11904,"type":"SCALAR"},{"bufferView":3,"componentType":5126,"count":289,"type":"VEC3","min":[-1.060128092765808,-1.060128092765808,-14.399999618530273],"max":[1.060128092765808,1.060128092765808,-11.399999618530273]},{"bufferView":4,"componentType":5126,"count":289,"type":"VEC3"},{"bufferView":5,"componentType":5125,"count":1536,"type":"SCALAR"}],"bufferViews":[{"buffer":0,"byteOffset":0,"byteLength":25740,"target":34962},{"buffer":0,"byteOffset":25740,"byteLength":25740,"target":34962},{"buffer":0,"byteOffset":51480,"byteLength":47616,"target":34963},{"buffer":0,"byteOffset":99096,"byteLength":3468,"target":34962},{"buffer":0,"byteOffset":102564,"byteLength":3468,"target":34962},{"buffer":0,"byteOffset":106032,"byteLength":6144,"target":34963}],"buffers":[{"byteLength":112176,"uri":"data:application/octet-stream;base64,"}]}
