{"asset":{"version":"2.0","generator":"UFO@home scripts/build-chiles-whitted-craft.ts"},"scene":0,"scenes":[{"nodes":[0,1,2,3,4,5,6,7,8,9,10,11,12,13,14,15,16]}],"nodes":[{"name":"hull","mesh":0},{"name":"nose","mesh":1},{"name":"tail","mesh":2},{"name":"underside","mesh":3},{"name":"window-1","mesh":4},{"name":"window-2","mesh":5},{"name":"window-3","mesh":6},{"name":"window-4","mesh":7},{"name":"window-5","mesh":8},{"name":"window-6","mesh":9},{"name":"window-7","mesh":10},{"name":"window-8","mesh":11},{"name":"window-9","mesh":12},{"name":"window-10","mesh":13},{"name":"window-11","mesh":14},{"name":"window-12","mesh":15},{"name":"exhaust","translation":[0,0,15],"rotation":[-0.7071067811865476,0,0,0.7071067811865476]}],"meshes":[{"name":"hull","primitives":[{"attributes":{"POSITION":0,"NORMAL":1},"indices":2,"material":0}]},{"name":"nose","primitives":[{"attributes":{"POSITION":3,"NORMAL":4},"indices":5,"material":0}]},{"name":"tail","primitives":[{"attributes":{"POSITION":6,"NORMAL":7},"indices":8,"material":0}]},{"name":"underside","primitives":[{"attributes":{"POSITION":9,"NORMAL":10},"indices":11,"material":2}]},{"name":"window-1","primitives":[{"attributes":{"POSITION":12,"NORMAL":13},"indices":14,"material":1}]},{"name":"window-2","primitives":[{"attributes":{"POSITION":15,"NORMAL":16},"indices":17,"material":1}]},{"name":"window-3","primitives":[{"attributes":{"POSITION":18,"NORMAL":19},"indices":20,"material":1}]},{"name":"window-4","primitives":[{"attributes":{"POSITION":21,"NORMAL":22},"indices":23,"material":1}]},{"name":"window-5","primitives":[{"attributes":{"POSITION":24,"NORMAL":25},"indices":26,"material":1}]},{"name":"window-6","primitives":[{"attributes":{"POSITION":27,"NORMAL":28},"indices":29,"material":1}]},{"name":"window-7","primitives":[{"attributes":{"POSITION":30,"NORMAL":31},"indices":32,"material":1}]},{"name":"window-8","primitives":[{"attributes":{"POSITION":33,"NORMAL":34},"indices":35,"material":1}]},{"name":"window-9","primitives":[{"attributes":{"POSITION":36,"NORMAL":37},"indices":38,"material":1}]},{"name":"window-10","primitives":[{"attributes":{"POSITION":39,"NORMAL":40},"indices":41,"material":1}]},{"name":"window-11","primitives":[{"attributes":{"POSITION":42,"NORMAL":43},"indices":44,"material":1}]},{"name":"window-12","primitives":[{"attributes":{"POSITION":45,"NORMAL":46},"indices":47,"material":1}]}],"materials":[{"name":"hull","pbrMetallicRoughness":{"baseColorFactor":[0.010329823029626936,0.016807375752887384,0.05126945837404324,1],"metallicFactor":0.1,"roughnessFactor":0.45},"emissiveFactor":[0.00406428581291036,0.01739729809444453,0.11635803772116277]},{"name":"window","pbrMetallicRoughness":{"baseColorFactor":[1,0.9215818562772946,0.6307571363461468,1],"metallicFactor":0,"roughnessFactor":0.3},"emissiveFactor":[0.9,0.8294236706495651,0.5676814227115322]},{"name":"underside","pbrMetallicRoughness":{"baseColorFactor":[0.003035269835488375,0.003346535763899161,0.004024717018496307,1],"metallicFactor":0,"roughnessFactor":0.9}}],"accessors":[{"bufferView":0,"componentType":5126,"count":98,"type":"VEC3","min":[-2.700000047683716,-2.700000047683716,-15],"max":[2.700000047683716,2.700000047683716,15]},{"bufferView":1,"componentType":5126,"count":98,"type":"VEC3"},{"bufferView":2,"componentType":5125,"count":288,"type":"SCALAR"},{"bufferView":3,"componentType":5126,"count":50,"type":"VEC3","min":[-2.700000047683716,-2.700000047683716,-15],"max":[2.700000047683716,2.700000047683716,-15]},{"bufferView":4,"componentType":5126,"count":50,"type":"VEC3"},{"bufferView":5,"componentType":5125,"count":144,"type":"SCALAR"},{"bufferView":6,"componentType":5126,"count":50,"type":"VEC3","min":[-2.700000047683716,-2.700000047683716,15],"max":[2.700000047683716,2.700000047683716,15]},{"bufferView":7,"componentType":5126,"count":50,"type":"VEC3"},{"bufferView":8,"componentType":5125,"count":144,"type":"SCALAR"},{"bufferView":9,"componentType":5126,"count":289,"type":"VEC3","min":[-2.636977434158325,-2.7300000190734863,-14.989999771118164],"max":[2.636977434158325,-0.7065759897232056,14.989999771118164]},{"bufferView":10,"componentType":5126,"count":289,"type":"VEC3"},{"bufferView":11,"componentType":5125,"count":1536,"type":"SCALAR"},{"bufferView":12,"componentType":5126,"count":289,"type":"VEC3","min":[2.125739812850952,0.8753814101219177,-9.449999809265137],"max":[2.5858476161956787,1.7129303216934204,-7.550000190734863]},{"bufferView":13,"componentType":5126,"count":289,"type":"VEC3"},{"bufferView":14,"componentType":5125,"count":1536,"type":"SCALAR"},{"bufferView":15,"componentType":5126,"count":289,"type":"VEC3","min":[2.125739812850952,0.8753814101219177,-0.949999988079071],"max":[2.5858476161956787,1.7129303216934204,0.949999988079071]},{"bufferView":16,"componentType":5126,"count":289,"type":"VEC3"},{"bufferView":17,"componentType":5125,"count":1536,"type":"SCALAR"},{"bufferView":18,"componentType":5126,"count":289,"type":"VEC3","min":[2.125739812850952,0.8753814101219177,7.550000190734863],"max":[2.5858476161956787,1.7129303216934204,9.449999809265137]},{"bufferView":19,"componentType":5126,"count":289,"type":"VEC3"},{"bufferView":20,"componentType":5125,"count":1536,"type":"SCALAR"},{"bufferView":21,"componentType":5126,"count":289,"type":"VEC3","min":[2.125739812850952,-1.7129303216934204,-9.449999809265137],"max":[2.5858476161956787,-0.8753814101219177,-7.550000190734863]},{"bufferView":22,"componentType":5126,"count":289,"type":"VEC3"},{"bufferView":23,"componentType":5125,"count":1536,"type":"SCALAR"},{"bufferView":24,"componentType":5126,"count":289,"type":"VEC3","min":[2.125739812850952,-1.7129303216934204,-0.949999988079071],"max":[2.5858476161956787,-0.8753814101219177,0.949999988079071]},{"bufferView":25,"componentType":5126,"count":289,"type":"VEC3"},{"bufferView":26,"componentType":5125,"count":1536,"type":"SCALAR"},{"bufferView":27,"componentType":5126,"count":289,"type":"VEC3","min":[2.125739812850952,-1.7129303216934204,7.550000190734863],"max":[2.5858476161956787,-0.8753814101219177,9.449999809265137]},{"bufferView":28,"componentType":5126,"count":289,"type":"VEC3"},{"bufferView":29,"componentType":5125,"count":1536,"type":"SCALAR"},{"bufferView":30,"componentType":5126,"count":289,"type":"VEC3","min":[-2.5858476161956787,0.8753814101219177,-9.449999809265137],"max":[-2.125739812850952,1.7129303216934204,-7.550000190734863]},{"bufferView":31,"componentType":5126,"count":289,"type":"VEC3"},{"bufferView":32,"componentType":5125,"count":1536,"type":"SCALAR"},{"bufferView":33,"componentType":5126,"count":289,"type":"VEC3","min":[-2.5858476161956787,0.8753814101219177,-0.949999988079071],"max":[-2.125739812850952,1.7129303216934204,0.949999988079071]},{"bufferView":34,"componentType":5126,"count":289,"type":"VEC3"},{"bufferView":35,"componentType":5125,"count":1536,"type":"SCALAR"},{"bufferView":36,"componentType":5126,"count":289,"type":"VEC3","min":[-2.5858476161956787,0.8753814101219177,7.550000190734863],"max":[-2.125739812850952,1.7129303216934204,9.449999809265137]},{"bufferView":37,"componentType":5126,"count":289,"type":"VEC3"},{"bufferView":38,"componentType":5125,"count":1536,"type":"SCALAR"},{"bufferView":39,"componentType":5126,"count":289,"type":"VEC3","min":[-2.5858476161956787,-1.7129303216934204,-9.449999809265137],"max":[-2.125739812850952,-0.8753814101219177,-7.550000190734863]},{"bufferView":40,"componentType":5126,"count":289,"type":"VEC3"},{"bufferView":41,"componentType":5125,"count":1536,"type":"SCALAR"},{"bufferView":42,"componentType":5126,"count":289,"type":"VEC3","min":[-2.5858476161956787,-1.7129303216934204,-0.949999988079071],"max":[-2.125739812850952,-0.8753814101219177,0.949999988079071]},{"bufferView":43,"componentType":5126,"count":289,"type":"VEC3"},{"bufferView":44,"componentType":5125,"count":1536,"type":"SCALAR"},{"bufferView":45,"componentType":5126,"count":289,"type":"VEC3","min":[-2.5858476161956787,-1.7129303216934204,7.550000190734863],"max":[-2.125739812850952,-0.8753814101219177,9.449999809265137]},{"bufferView":46,"componentType":5126,"count":289,"type":"VEC3"},{"bufferView":47,"componentType":5125,"count":1536,"type":"SCALAR"}],"bufferViews":[{"buffer":0,"byteOffset":0,"byteLength":1176,"target":34962},{"buffer":0,"byteOffset":1176,"byteLength":1176,"target":34962},{"buffer":0,"byteOffset":2352,"byteLength":1152,"target":34963},{"buffer":0,"byteOffset":3504,"byteLength":600,"target":34962},{"buffer":0,"byteOffset":4104,"byteLength":600,"target":34962},{"buffer":0,"byteOffset":4704,"byteLength":576,"target":34963},{"buffer":0,"byteOffset":5280,"byteLength":600,"target":34962},{"buffer":0,"byteOffset":5880,"byteLength":600,"target":34962},{"buffer":0,"byteOffset":6480,"byteLength":576,"target":34963},{"buffer":0,"byteOffset":7056,"byteLength":3468,"target":34962},{"buffer":0,"byteOffset":10524,"byteLength":3468,"target":34962},{"buffer":0,"byteOffset":13992,"byteLength":6144,"target":34963},{"buffer":0,"byteOffset":20136,"byteLength":3468,"target":34962},{"buffer":0,"byteOffset":23604,"byteLength":3468,"target":34962},{"buffer":0,"byteOffset":27072,"byteLength":6144,"target":34963},{"buffer":0,"byteOffset":33216,"byteLength":3468,"target":34962},{"buffer":0,"byteOffset":36684,"byteLength":3468,"target":34962},{"buffer":0,"byteOffset":40152,"byteLength":6144,"target":34963},{"buffer":0,"byteOffset":46296,"byteLength":3468,"target":34962},{"buffer":0,"byteOffset":49764,"byteLength":3468,"target":34962},{"buffer":0,"byteOffset":53232,"byteLength":6144,"target":34963},{"buffer":0,"byteOffset":59376,"byteLength":3468,"target":34962},{"buffer":0,"byteOffset":62844,"byteLength":3468,"target":34962},{"buffer":0,"byteOffset":66312,"byteLength":6144,"target":34963},{"buffer":0,"byteOffset":72456,"byteLength":3468,"target":34962},{"buffer":0,"byteOffset":75924,"byteLength":3468,"target":34962},{"buffer":0,"byteOffset":79392,"byteLength":6144,"target":34963},{"buffer":0,"byteOffset":85536,"byteLength":3468,"target":34962},{"buffer":0,"byteOffset":89004,"byteLength":3468,"target":34962},{"buffer":0,"byteOffset":92472,"byteLength":6144,"target":34963},{"buffer":0,"byteOffset":98616,"byteLength":3468,"target":34962},{"buffer":0,"byteOffset":102084,"byteLength":3468,"target":34962},{"buffer":0,"byteOffset":105552,"byteLength":6144,"target":34963},{"buffer":0,"byteOffset":111696,"byteLength":3468,"target":34962},{"buffer":0,"byteOffset":115164,"byteLength":3468,"target":34962},{"buffer":0,"byteOffset":118632,"byteLength":6144,"target":34963},{"buffer":0,"byteOffset":124776,"byteLength":3468,"target":34962},{"buffer":0,"byteOffset":128244,"byteLength":3468,"target":34962},{"buffer":0,"byteOffset":131712,"byteLength":6144,"target":34963},{"buffer":0,"byteOffset":137856,"byteLength":3468,"target":34962},{"buffer":0,"byteOffset":141324,"byteLength":3468,"target":34962},{"buffer":0,"byteOffset":144792,"byteLength":6144,"target":34963},{"buffer":0,"byteOffset":150936,"byteLength":3468,"target":34962},{"buffer":0,"byteOffset":154404,"byteLength":3468,"target":34962},{"buffer":0,"byteOffset":157872,"byteLength":6144,"target":34963},{"buffer":0,"byteOffset":164016,"byteLength":3468,"target":34962},{"buffer":0,"byteOffset":167484,"byteLength":3468,"target":34962},{"buffer":0,"byteOffset":170952,"byteLength":6144,"target":34963}],"buffers":[{"byteLength":177096,"uri":"data:application/octet-stream;base64,"}]}
