{"asset":{"version":"2.0","generator":"UFO@home scripts/build-trans-en-provence-craft.ts"},"scene":0,"scenes":[{"nodes":[0,1,2,3,4,5,6]}],"nodes":[{"name":"hull","mesh":0},{"name":"pod-1","mesh":1},{"name":"pod-2","mesh":2},{"name":"pod-3","mesh":3},{"name":"pod-4","mesh":4},{"name":"foot-1","mesh":5},{"name":"foot-2","mesh":6}],"meshes":[{"name":"hull","primitives":[{"attributes":{"POSITION":0,"NORMAL":1},"indices":2,"material":0}]},{"name":"pod-1","primitives":[{"attributes":{"POSITION":3,"NORMAL":4},"indices":5,"material":2}]},{"name":"pod-2","primitives":[{"attributes":{"POSITION":6,"NORMAL":7},"indices":8,"material":2}]},{"name":"pod-3","primitives":[{"attributes":{"POSITION":9,"NORMAL":10},"indices":11,"material":2}]},{"name":"pod-4","primitives":[{"attributes":{"POSITION":12,"NORMAL":13},"indices":14,"material":2}]},{"name":"foot-1","primitives":[{"attributes":{"POSITION":15,"NORMAL":16},"indices":17,"material":1}]},{"name":"foot-2","primitives":[{"attributes":{"POSITION":18,"NORMAL":19},"indices":20,"material":1}]}],"materials":[{"name":"hull","pbrMetallicRoughness":{"baseColorFactor":[0.20507873639031693,0.2195261997292692,0.238397573812271,1],"metallicFactor":0.35,"roughnessFactor":0.6}},{"name":"ledge","pbrMetallicRoughness":{"baseColorFactor":[0.11443537382697373,0.12477181756095049,0.13843161503245183,1],"metallicFactor":0.25,"roughnessFactor":0.85}},{"name":"underside","pbrMetallicRoughness":{"baseColorFactor":[0.07818742180518633,0.08650046203654976,0.09758734714186246,1],"metallicFactor":0.3,"roughnessFactor":0.8}}],"accessors":[{"bufferView":0,"componentType":5126,"count":780,"type":"VEC3","min":[-1.25,0.20000000298023224,-1.25],"max":[1.25,1.7999999523162842,1.25]},{"bufferView":1,"componentType":5126,"count":780,"type":"VEC3"},{"bufferView":2,"componentType":5125,"count":4224,"type":"SCALAR"},{"bufferView":3,"componentType":5126,"count":148,"type":"VEC3","min":[0.3100000023841858,0.17000000178813934,-0.14000000059604645],"max":[0.5899999737739563,0.23000000417232513,0.14000000059604645]},{"bufferView":4,"componentType":5126,"count":148,"type":"VEC3"},{"bufferView":5,"componentType":5125,"count":288,"type":"SCALAR"},{"bufferView":6,"componentType":5126,"count":148,"type":"VEC3","min":[-0.14000000059604645,0.17000000178813934,0.3100000023841858],"max":[0.14000000059604645,0.23000000417232513,0.5899999737739563]},{"bufferView":7,"componentType":5126,"count":148,"type":"VEC3"},{"bufferView":8,"componentType":5125,"count":288,"type":"SCALAR"},{"bufferView":9,"componentType":5126,"count":148,"type":"VEC3","min":[-0.5899999737739563,0.17000000178813934,-0.14000000059604645],"max":[-0.3100000023841858,0.23000000417232513,0.14000000059604645]},{"bufferView":10,"componentType":5126,"count":148,"type":"VEC3"},{"bufferView":11,"componentType":5125,"count":288,"type":"SCALAR"},{"bufferView":12,"componentType":5126,"count":148,"type":"VEC3","min":[-0.14000000059604645,0.17000000178813934,-0.5899999737739563],"max":[0.14000000059604645,0.23000000417232513,-0.3100000023841858]},{"bufferView":13,"componentType":5126,"count":148,"type":"VEC3"},{"bufferView":14,"componentType":5125,"count":288,"type":"SCALAR"},{"bufferView":15,"componentType":5126,"count":124,"type":"VEC3","min":[0.19819805026054382,0,0.19819805026054382],"max":[0.438198059797287,0.25,0.438198059797287]},{"bufferView":16,"componentType":5126,"count":124,"type":"VEC3"},{"bufferView":17,"componentType":5125,"count":240,"type":"SCALAR"},{"bufferView":18,"componentType":5126,"count":124,"type":"VEC3","min":[-0.438198059797287,0,-0.438198059797287],"max":[-0.19819805026054382,0.25,-0.19819805026054382]},{"bufferView":19,"componentType":5126,"count":124,"type":"VEC3"},{"bufferView":20,"componentType":5125,"count":240,"type":"SCALAR"}],"bufferViews":[{"buffer":0,"byteOffset":0,"byteLength":9360,"target":34962},{"buffer":0,"byteOffset":9360,"byteLength":9360,"target":34962},{"buffer":0,"byteOffset":18720,"byteLength":16896,"target":34963},{"buffer":0,"byteOffset":35616,"byteLength":1776,"target":34962},{"buffer":0,"byteOffset":37392,"byteLength":1776,"target":34962},{"buffer":0,"byteOffset":39168,"byteLength":1152,"target":34963},{"buffer":0,"byteOffset":40320,"byteLength":1776,"target":34962},{"buffer":0,"byteOffset":42096,"byteLength":1776,"target":34962},{"buffer":0,"byteOffset":43872,"byteLength":1152,"target":34963},{"buffer":0,"byteOffset":45024,"byteLength":1776,"target":34962},{"buffer":0,"byteOffset":46800,"byteLength":1776,"target":34962},{"buffer":0,"byteOffset":48576,"byteLength":1152,"target":34963},{"buffer":0,"byteOffset":49728,"byteLength":1776,"target":34962},{"buffer":0,"byteOffset":51504,"byteLength":1776,"target":34962},{"buffer":0,"byteOffset":53280,"byteLength":1152,"target":34963},{"buffer":0,"byteOffset":54432,"byteLength":1488,"target":34962},{"buffer":0,"byteOffset":55920,"byteLength":1488,"target":34962},{"buffer":0,"byteOffset":57408,"byteLength":960,"target":34963},{"buffer":0,"byteOffset":58368,"byteLength":1488,"target":34962},{"buffer":0,"byteOffset":59856,"byteLength":1488,"target":34962},{"buffer":0,"byteOffset":61344,"byteLength":960,"target":34963}],"buffers":[{"byteLength":62304,"uri":"data:application/octet-stream;base64,"}]}
